<svg width="169" height="52" viewBox="0 0 169 52" fill="none" xmlns="http://www.w3.org/2000/svg">
<g clip-path="url(#clip0_417_12041)">
<path d="M22.5858 14.174C21.2156 14.8552 22.3205 16.5469 23.6475 15.813C25.0776 15.0122 25.737 13.7781 25.2661 12.2212C24.9228 11.0876 23.4935 10.665 22.4662 10.6872C22.3205 10.6949 22.3539 10.7957 22.406 10.8443C22.7145 11.1365 22.6203 11.5622 22.3205 11.7723C22.0635 11.956 21.6698 11.9037 21.4556 11.6153C21.3015 11.3982 21.2928 11.1098 21.4298 10.8973C21.4813 10.7923 21.4556 10.717 21.3443 10.7437C21.0017 10.7923 20.4192 10.9275 20.0513 11.0876C19.9143 11.1362 19.9143 11.2412 19.9915 11.3719C20.3079 11.9037 20.8734 12.4569 21.6611 12.5661C22.6714 12.6965 23.0397 11.4028 23.8361 11.5588C24.8978 11.7723 24.3069 13.3215 22.5858 14.174Z" fill="#583D94"/>
<path d="M38.3503 21.0067C33.2214 21.5233 27.3476 26.2033 26.4903 32.975C26.1829 32.9681 25.8573 32.9605 25.5061 32.9563C26.0375 27.9203 29.0513 24.9799 30.8837 21.9081C32.8959 18.5298 30.7209 16.0973 29.6849 14.99C29.2655 14.5376 28.8972 14.6981 28.9998 15.3339C30.113 21.8294 24.6843 24.0709 24.6843 30.9848C24.6843 31.3586 24.2392 31.3586 24.1537 31.041C23.3058 27.6884 23.5617 24.9161 24.1537 22.9068C24.676 21.1153 23.6483 20.9804 22.3038 21.2754C21.1138 21.5375 19.5468 21.699 18.0656 21.4325C15.7623 21.0137 16.3702 20.0073 16.687 19.6111C16.6613 19.0571 16.6957 18.3728 16.823 17.8708C16.8838 17.6052 17.192 17.5491 17.2692 17.8451C17.4309 18.447 17.8771 19.1656 18.1682 19.1878C19.1016 19.2707 19.8124 19.1393 20.3946 18.2601C20.8742 17.5491 21.0797 16.0228 20.7629 15.439C20.3943 14.7543 17.9713 14.5078 17.723 14.833C17.4917 15.1172 17.3196 15.753 17.192 16.2848C17.1151 16.6024 16.7813 16.5725 16.687 16.2848C16.4898 15.6445 16.3184 14.9678 16.2589 14.5113C15.7623 14.174 15.5822 13.5943 15.7623 13.4109C16.0534 13.0969 16.8668 13.299 17.0028 12.9586C17.1492 12.607 16.7983 12.1314 16.1807 11.8471C16.0009 11.7643 16.0277 11.593 16.2329 11.4804C16.7726 11.1961 17.9275 10.9271 18.6735 10.9271C21.328 9.23954 24.3154 9.02633 27.9468 11.2148C29.4283 12.1127 30.4726 8.71986 27.3809 10.0292C27.1667 10.1187 26.9525 9.89404 27.2276 9.71065C29.5055 8.177 31.1407 9.71067 30.1388 11.8694C29.839 12.5131 30.0017 12.7228 30.4556 13.1676C31.1407 13.8377 31.7573 14.5154 32.4156 15.3117C32.7077 15.6556 32.9988 15.387 32.9988 14.833C32.9988 7.91839 26.3286 3.48073 23.0996 0.00159454C19.8636 3.48073 13.1933 7.91839 13.1933 14.833C13.1933 22.6191 19.8723 25.1934 20.6763 32.9567C20.3348 32.9605 20.0092 32.9681 19.6921 32.975C18.8446 26.2029 12.9794 21.5229 7.84185 21.0067C1.4881 20.3775 -1.32047 26.2372 0.588442 31.2022C3.1835 37.9552 11.3258 36.9073 10.0679 31.7853C9.16894 28.137 10.3848 26.7084 12.4999 26.7084C15.137 26.7084 17.3033 29.4661 17.7999 33.0912C16.2245 33.2558 15.5223 33.5997 15.5223 34.3108C15.5223 35.0031 16.2492 35.3358 17.8594 35.4974C17.4149 40.0058 13.2706 41.6257 9.16861 39.328C8.62957 43.133 10.4352 45.2959 13.1933 45.2959C16.4554 45.2959 19.4949 40.9633 19.778 35.6056C20.0778 35.609 20.4029 35.6201 20.7371 35.6201C20.5831 40.1108 19.4354 43.3577 16.687 46.2426C18.5354 48.7795 22.4572 52.0015 23.0996 52.0015C23.7339 52.0015 27.647 48.7795 29.5054 46.2426C26.7567 43.3577 25.6 40.1108 25.438 35.6201C25.7892 35.6201 26.1057 35.609 26.4055 35.6056C26.6965 40.9633 29.7357 45.2959 32.9988 45.2959C35.7472 45.2959 37.5532 43.133 37.0232 39.328C32.9126 41.6257 28.7689 40.0058 28.3237 35.4974C29.9419 35.3358 30.6698 35.0031 30.6698 34.3108C30.6698 33.6001 29.959 33.2558 28.3919 33.0912C28.8889 29.4661 31.0464 26.7084 33.6839 26.7084C35.7987 26.7084 37.0232 28.137 36.1232 31.7853C34.8569 36.9073 43.0076 37.9556 45.603 31.2022C47.5033 26.2372 44.704 20.3775 38.3503 21.0067Z" fill="#583D94"/>
<path d="M25.8742 19.3449C27.99 17.572 28.4686 14.1442 26.9627 12.3485C26.6449 11.9779 26.3621 12.1647 26.4052 12.5661C26.5934 14.1178 26.4306 16.0529 24.2814 17.4971C22.5092 18.6903 24.2046 20.7447 25.8742 19.3449Z" fill="#583D94"/>
<path d="M54.9951 32.9376H56.6992V35.5459H56.7173L58.6526 32.9376H60.7065L58.3348 35.912L60.8874 39.3246H58.7124L56.7173 36.4286H56.6992V39.3246H54.9951V32.9376Z" fill="#4F4C4D"/>
<path d="M63.4303 39.4411C65.0144 39.4411 66.2218 38.5241 66.2218 36.9451C66.2218 35.3626 65.0144 34.4456 63.4303 34.4456C61.8549 34.4456 60.6475 35.3626 60.6475 36.9451C60.6475 38.5241 61.8549 39.4411 63.4303 39.4411ZM63.4303 38.2853C62.6683 38.2853 62.3599 37.6561 62.3599 36.9451C62.3599 36.2344 62.6683 35.6024 63.4303 35.6024C64.2003 35.6024 64.5091 36.2341 64.5091 36.9451C64.5091 37.6561 64.2003 38.2853 63.4303 38.2853ZM70.4344 35.876C70.2546 35.8229 70.0661 35.8229 69.8786 35.8229C69.1073 35.8229 68.6705 36.3804 68.6705 37.3122V39.3249H67.0179V34.559H68.5258V35.4381H68.5422C68.8245 34.8321 69.2443 34.4463 69.9548 34.4463C70.1449 34.4496 70.3344 34.4695 70.521 34.5059L70.4344 35.876ZM75.6833 37.4242V37.1212C75.6833 35.7033 75.0409 34.446 73.2694 34.446C71.7785 34.446 70.7008 35.3629 70.7008 36.9374C70.7008 38.5168 71.9072 39.4411 73.4913 39.4411C74.0992 39.4411 74.7071 39.3475 75.2378 39.1381V37.9747C74.7499 38.2402 74.2285 38.3373 73.7823 38.3373C72.9773 38.3373 72.4636 38.0832 72.3694 37.4242H75.6833ZM72.3523 36.4885C72.3951 35.9425 72.6778 35.4936 73.2774 35.4936C73.9364 35.4936 74.1934 35.9425 74.1934 36.4885H72.3523ZM81.1978 39.3246C81.121 38.9516 81.1039 38.5803 81.1039 38.2031V36.4282C81.1039 34.9698 80.0411 34.4456 78.8253 34.4456C78.1145 34.4456 77.5066 34.5461 76.9081 34.7864L76.9422 35.9054C77.396 35.6465 77.9267 35.5459 78.4664 35.5459C79.057 35.5459 79.5445 35.7251 79.5623 36.372C79.348 36.3311 79.057 36.3055 78.7909 36.3055C77.9003 36.3055 76.3169 36.4812 76.3169 37.9365C76.3169 38.9696 77.155 39.4407 78.1065 39.4407C78.7909 39.4407 79.2455 39.1752 79.6221 38.5803H79.6395C79.6395 38.8236 79.6732 39.0701 79.6812 39.3246H81.1978ZM77.8586 37.8173C77.8586 37.3597 78.2943 37.1839 78.8602 37.1839C79.1088 37.1839 79.3484 37.2078 79.5626 37.2148C79.5626 37.7722 79.1686 38.3373 78.5426 38.3373C78.1486 38.3373 77.8586 38.1459 77.8586 37.8173ZM85.2309 37.7535C85.6677 37.9934 86.2833 38.1726 86.9948 38.1726C87.5335 38.1726 88.0479 38.0641 88.0479 37.5521C88.0479 36.3613 85.0167 37.1132 85.0167 34.7864C85.0167 33.2482 86.5239 32.8294 87.8083 32.8294C88.4238 32.8294 89.0317 32.9196 89.4695 33.0659L89.3572 34.3863C88.9128 34.1839 88.4161 34.091 87.9272 34.091C87.4914 34.091 86.7806 34.1274 86.7806 34.6858C86.7806 35.7255 89.8121 35.0221 89.8121 37.3309C89.8121 38.9886 88.4162 39.4407 86.9952 39.4407C86.3946 39.4407 85.6503 39.3471 85.0852 39.1599L85.2309 37.7535ZM94.4868 35.9235C94.187 35.7408 93.8789 35.651 93.4943 35.651C92.7744 35.651 92.2183 36.1522 92.2183 36.9752C92.2183 37.7344 92.8606 38.2323 93.5791 38.2323C93.9558 38.2323 94.3324 38.1459 94.6151 38L94.6416 39.2272C94.2381 39.3659 93.7416 39.4407 93.2964 39.4407C91.713 39.4407 90.5135 38.5241 90.5135 36.9447C90.5135 35.3625 91.7134 34.446 93.2964 34.446C93.793 34.446 94.2382 34.5319 94.6151 34.7157L94.4868 35.9235ZM97.8866 39.4411C99.4707 39.4411 100.669 38.5241 100.669 36.9451C100.669 35.3626 99.4707 34.4456 97.8866 34.4456C96.3102 34.4456 95.1038 35.3626 95.1038 36.9451C95.1038 38.5241 96.3105 39.4411 97.8866 39.4411ZM97.8866 38.2853C97.1236 38.2853 96.8162 37.6561 96.8162 36.9451C96.8162 36.2344 97.1236 35.6024 97.8866 35.6024C98.6486 35.6024 98.9654 36.2341 98.9654 36.9451C98.9654 37.6561 98.6489 38.2853 97.8866 38.2853ZM106.569 39.3246H105.062V38.4489H105.045C104.72 39.1377 104.052 39.4404 103.298 39.4404C101.997 39.4404 101.474 38.5248 101.474 37.5355V34.5583H103.127V36.8664C103.127 37.7608 103.435 38.0637 103.889 38.0637C104.574 38.0637 104.916 37.5961 104.916 36.571V34.5583H106.569L106.569 39.3246ZM107.177 34.5583H108.153V33.4881L109.771 32.9795V34.5583H110.936V35.7106H109.771V37.4692C109.771 38.0485 109.917 38.3373 110.439 38.3373C110.602 38.3373 110.773 38.3026 110.944 38.2773L111.004 39.3468C110.688 39.3846 110.379 39.4407 109.96 39.4407C108.487 39.4407 108.127 38.7897 108.127 37.6561V35.7106H107.177V34.5583ZM114.095 39.3246H115.825L116.33 37.9622H118.736L119.215 39.3246H121.091L118.616 32.9376H116.527L114.095 39.3246ZM118.334 36.7537H116.733L117.555 34.2588H117.572L118.334 36.7537ZM121.579 38.0114C121.973 38.1726 122.547 38.3373 123.137 38.3373C123.472 38.3373 123.814 38.2853 123.814 37.956C123.814 37.1517 121.459 37.7161 121.459 35.9952C121.459 34.8949 122.547 34.446 123.497 34.446C124.071 34.446 124.645 34.5136 125.175 34.7226L125.056 35.868C124.704 35.6513 124.183 35.5463 123.771 35.5463C123.412 35.5463 123 35.6094 123 35.8756C123 36.6157 125.467 36.033 125.467 37.8433C125.467 39.119 124.32 39.4411 123.224 39.4411C122.487 39.4411 121.982 39.3658 121.493 39.2122L121.579 38.0114ZM126.177 38.0114C126.572 38.1726 127.136 38.3373 127.735 38.3373C128.07 38.3373 128.404 38.2853 128.404 37.956C128.404 37.1517 126.05 37.7161 126.05 35.9952C126.05 34.8949 127.136 34.446 128.095 34.446C128.66 34.446 129.243 34.5136 129.773 34.7226L129.646 35.868C129.294 35.6513 128.771 35.5463 128.352 35.5463C128.002 35.5463 127.598 35.6094 127.598 35.8756C127.598 36.6157 130.056 36.033 130.056 37.8433C130.056 39.119 128.908 39.4411 127.822 39.4411C127.077 39.4411 126.572 39.3658 126.084 39.2122L126.177 38.0114ZM133.422 39.4411C135.006 39.4411 136.205 38.5241 136.205 36.9451C136.205 35.3626 135.006 34.4456 133.422 34.4456C131.837 34.4456 130.639 35.3626 130.639 36.9451C130.639 38.5241 131.837 39.4411 133.422 39.4411ZM133.422 38.2853C132.659 38.2853 132.342 37.6561 132.342 36.9451C132.342 36.2344 132.659 35.6024 133.422 35.6024C134.184 35.6024 134.492 36.2341 134.492 36.9451C134.492 37.6561 134.184 38.2853 133.422 38.2853ZM140.751 35.9235C140.451 35.7408 140.152 35.651 139.749 35.651C139.039 35.651 138.482 36.1522 138.482 36.9752C138.482 37.7344 139.124 38.2323 139.843 38.2323C140.22 38.2323 140.597 38.1459 140.871 38L140.914 39.2272C140.474 39.3674 140.014 39.4394 139.552 39.4407C137.977 39.4407 136.778 38.5241 136.778 36.9447C136.778 35.3625 137.977 34.446 139.552 34.446C140.049 34.446 140.494 34.5319 140.871 34.7157L140.751 35.9235ZM143.44 33.7807H141.796V32.5674H143.44V33.7807ZM141.796 34.5583H143.44V39.3242H141.796V34.5583ZM149.314 39.3246C149.237 38.9516 149.219 38.5803 149.219 38.2031V36.4282C149.219 34.9698 148.166 34.4456 146.942 34.4456C146.24 34.4456 145.623 34.5461 145.032 34.7864L145.067 35.9054C145.521 35.6465 146.06 35.5459 146.591 35.5459C147.182 35.5459 147.67 35.7251 147.679 36.372C147.464 36.3311 147.173 36.3055 146.908 36.3055C146.026 36.3055 144.433 36.4812 144.433 37.9365C144.433 38.9696 145.281 39.4407 146.231 39.4407C146.908 39.4407 147.369 39.1752 147.747 38.5803H147.755C147.755 38.8236 147.789 39.0701 147.797 39.3246H149.314ZM145.983 37.8173C145.983 37.3597 146.42 37.1839 146.976 37.1839C147.224 37.1839 147.464 37.2078 147.679 37.2148C147.679 37.7722 147.284 38.3373 146.66 38.3373C146.274 38.3373 145.983 38.1459 145.983 37.8173ZM149.853 34.5583H150.829V33.4881L152.456 32.9795V34.5583H153.613V35.7106H152.456V37.4692C152.456 38.0485 152.593 38.3373 153.116 38.3373C153.287 38.3373 153.458 38.3026 153.62 38.2773L153.672 39.3468C153.365 39.3846 153.055 39.4407 152.636 39.4407C151.163 39.4407 150.804 38.7897 150.804 37.6561V35.7106H149.853V34.5583ZM156.267 33.7807H154.614V32.5674H156.267V33.7807ZM154.614 34.5583H156.267V39.3242H154.614V34.5583ZM159.983 39.4411C161.568 39.4411 162.765 38.5241 162.765 36.9451C162.765 35.3626 161.568 34.4456 159.983 34.4456C158.407 34.4456 157.2 35.3626 157.2 36.9451C157.2 38.5241 158.407 39.4411 159.983 39.4411ZM159.983 38.2853C159.212 38.2853 158.904 37.6561 158.904 36.9451C158.904 36.2344 159.212 35.6024 159.983 35.6024C160.745 35.6024 161.053 36.2341 161.053 36.9451C161.053 37.6561 160.745 38.2853 159.983 38.2853ZM163.562 34.5583H165.07V35.4374H165.086C165.421 34.749 166.079 34.446 166.833 34.446C168.144 34.446 168.665 35.3625 168.665 36.3543V39.3246H167.012V37.0199C167.012 36.1221 166.696 35.8226 166.251 35.8226C165.566 35.8226 165.215 36.2906 165.215 37.3118V39.3246H163.562V34.5583ZM80.4953 28.0628H83.1669V22.7949H77.9448V20.9021H83.0215V18.5066H81.4382V13.9164H71.462V16.307H78.7659V18.5066H70.1861V20.9021H75.2551V22.7949H70.0316V25.1893H80.4953V28.0628ZM91.3099 17.572L95.2919 22.2565L97.2185 20.535L91.3099 13.6883L85.4027 20.535L87.32 22.2565L91.3099 17.572ZM97.9548 24.6211H84.6578V27.012H97.9548V24.6211ZM110.14 13.7628H107.468V28.0631H110.14V19.7383H112.1V17.1983H110.14V13.7628ZM98.5112 19.1847V21.5344H102.741V25.2045H105.413V14.0658H98.2031V16.4564H102.741V19.1847H98.5112ZM119.147 15.675C119.97 15.675 120.851 16.4422 120.851 17.4971C120.851 18.5489 119.97 19.3195 119.147 19.3195C118.334 19.3195 117.444 18.5489 117.444 17.4971C117.444 16.4422 118.334 15.675 119.147 15.675ZM119.147 21.6838C121.596 21.6838 123.6 19.7983 123.6 17.4971C123.6 15.1925 121.596 13.3104 119.147 13.3104C116.707 13.3104 114.695 15.1928 114.695 17.4971C114.695 19.7983 116.706 21.6838 119.147 21.6838M112.503 24.8863H117.803V28.0631H120.492V24.8863H125.793V22.4992H112.503V24.8863ZM138.216 21.2612H131.144V19.877H137.96V17.6618H131.143V16.3226H138.14V14.0658H128.472V23.5173H138.217L138.216 21.2612ZM126.666 27.314H139.956V24.9199H126.666V27.314ZM159.478 18.4432H158.133V16.3067H159.478V18.4432ZM161.867 14.0655H155.744V20.6847H161.866L161.867 14.0655Z" fill="#4F4C4D"/>
<path d="M165.506 24.6211C165.506 25.459 164.863 26.1547 164.101 26.1547C163.347 26.1547 162.697 25.459 162.697 24.6211C162.697 23.7752 163.347 23.0829 164.1 23.0829C164.863 23.0829 165.506 23.7752 165.506 24.6211ZM166.336 15.8994H165.266V13.7628H162.937V20.8834C161.276 21.3652 160.042 22.8663 160.042 24.6211C160.042 26.7573 161.866 28.5155 164.1 28.5155C166.336 28.5155 168.16 26.7573 168.16 24.6208C168.16 22.8659 166.936 21.3656 165.266 20.8834V18.2944H166.336V20.9915H168.664V13.7628H166.336L166.336 15.8994ZM151.394 23.248H154.065V13.7625H151.394V14.635H149.536V17.0291H151.394V18.4324H149.536V20.8231H151.394V23.248ZM145.46 16.0827C146.179 16.0827 146.787 16.775 146.787 17.6167C146.787 18.4591 146.179 19.1507 145.46 19.1507C144.732 19.1507 144.133 18.4591 144.133 17.6167C144.133 16.775 144.732 16.0827 145.46 16.0827ZM145.46 21.5157C147.652 21.5157 149.442 19.7574 149.442 17.6167C149.442 15.4768 147.652 13.7178 145.46 13.7178C143.268 13.7178 141.47 15.4768 141.47 17.6167C141.47 19.7574 143.268 21.5157 145.46 21.5157ZM144.356 22.6458H141.607V27.913H154.75V25.5189H144.356V22.6458ZM67.223 13.7628H64.5515V23.2483H67.223V19.1393H69.0384V16.5913H67.223V13.7628ZM59.2856 17.4073C59.834 17.4073 60.2781 17.9315 60.2781 18.5974C60.2781 19.2887 59.834 19.8163 59.2859 19.8163C58.7371 19.8163 58.2843 19.2887 58.2843 18.5974C58.2843 17.9318 58.7368 17.4073 59.2856 17.4073ZM55.5943 18.5974C55.5943 20.5724 57.2469 22.1813 59.2859 22.1813C61.3238 22.1813 62.959 20.5724 62.959 18.5974C62.959 17.9759 62.8043 17.4673 62.5139 17.0593H63.6014V14.9679H60.6634V13.3104H57.915V14.9679H54.9951V17.0593H56.0405C55.7581 17.4673 55.5943 17.9759 55.5943 18.5974ZM57.7355 22.7949H54.9951V27.913H68.1314V25.5186H57.7355V22.7949Z" fill="#4F4C4D"/>
</g>
<defs>
<clipPath id="clip0_417_12041">
<rect width="168.667" height="52" fill="white"/>
</clipPath>
</defs>
</svg>
